<svg width="78" height="11" viewBox="0 0 78 11" fill="none" xmlns="http://www.w3.org/2000/svg">
<path d="M1.176 8.784C0.807996 8.648 0.523996 8.436 0.323996 8.148C0.131995 7.852 0.0279955 7.44 0.0119955 6.912C0.00399557 6.376 0.0879956 5.692 0.263996 4.86C0.319996 4.58 0.399996 4.26 0.503996 3.9C0.607996 3.54 0.727996 3.172 0.863996 2.796C1.008 2.412 1.156 2.044 1.308 1.692C1.468 1.332 1.624 1.016 1.776 0.744003C1.96 0.416003 2.1 0.212003 2.196 0.132003C2.3 0.0440035 2.392 0.00800347 2.472 0.0240033C2.624 0.0640032 2.732 0.140003 2.796 0.252003C2.868 0.356003 2.892 0.472003 2.868 0.600003C2.852 0.720003 2.776 0.824003 2.64 0.912003C2.552 1.016 2.436 1.208 2.292 1.488C2.156 1.76 2.016 2.024 1.872 2.28C1.712 2.744 1.572 3.156 1.452 3.516C1.332 3.868 1.232 4.2 1.152 4.512C1.072 4.824 0.999996 5.152 0.935996 5.496C0.863996 5.832 0.807996 6.108 0.767996 6.324C0.735996 6.54 0.711996 6.72 0.695996 6.864C0.687996 7 0.683996 7.12 0.683996 7.224C0.683996 7.328 0.683996 7.436 0.683996 7.548C0.747996 7.652 0.799996 7.744 0.839996 7.824C0.879996 7.904 0.931996 7.952 0.995996 7.968C1.132 8.032 1.284 8.048 1.452 8.016C1.628 7.984 1.8 7.92 1.968 7.824C2.008 7.744 2.06 7.688 2.124 7.656C2.188 7.624 2.22 7.608 2.22 7.608C2.236 7.648 2.252 7.66 2.268 7.644C2.292 7.62 2.308 7.592 2.316 7.56C2.308 7.528 2.316 7.5 2.34 7.476C2.364 7.444 2.392 7.412 2.424 7.38C2.488 7.356 2.58 7.276 2.7 7.14C2.828 6.996 2.956 6.836 3.084 6.66C3.22 6.484 3.332 6.324 3.42 6.18C3.516 6.036 3.564 5.948 3.564 5.916C3.564 5.876 3.58 5.84 3.612 5.808C3.644 5.776 3.68 5.736 3.72 5.688C3.76 5.648 3.84 5.52 3.96 5.304C4.088 5.08 4.224 4.82 4.368 4.524C4.52 4.228 4.656 3.956 4.776 3.708C4.8 3.62 4.844 3.48 4.908 3.288C4.972 3.088 5.04 2.86 5.112 2.604C5.192 2.348 5.268 2.092 5.34 1.836C5.412 1.572 5.476 1.34 5.532 1.14C5.596 0.932003 5.636 0.780004 5.652 0.684003C5.668 0.580003 5.692 0.496003 5.724 0.432003C5.756 0.360003 5.776 0.308003 5.784 0.276004C5.824 0.260003 5.872 0.264003 5.928 0.288003C5.984 0.312003 6.04 0.340003 6.096 0.372003C6.16 0.404003 6.216 0.432003 6.264 0.456003C6.312 0.520004 6.332 0.600003 6.324 0.696003C6.316 0.792003 6.288 0.940003 6.24 1.14C6.2 1.332 6.14 1.612 6.06 1.98C5.892 2.636 5.688 3.24 5.448 3.792C5.216 4.344 4.964 4.928 4.692 5.544C4.692 5.544 4.692 5.548 4.692 5.556C4.692 5.556 4.692 5.576 4.692 5.616C4.596 5.672 4.52 5.756 4.464 5.868C4.424 5.94 4.388 6.004 4.356 6.06C4.332 6.108 4.3 6.144 4.26 6.168C4.236 6.24 4.212 6.304 4.188 6.36C4.164 6.416 4.152 6.444 4.152 6.444C4.144 6.484 4.116 6.52 4.068 6.552C4.02 6.584 3.972 6.616 3.924 6.648C3.884 6.664 3.86 6.696 3.852 6.744C3.844 6.792 3.828 6.832 3.804 6.864C3.628 7.128 3.428 7.388 3.204 7.644C2.98 7.9 2.748 8.12 2.508 8.304C2.276 8.496 2.052 8.632 1.836 8.712C1.692 8.768 1.572 8.8 1.476 8.808C1.388 8.816 1.288 8.808 1.176 8.784ZM9.77306 7.608C9.61306 7.608 9.48106 7.576 9.37706 7.512C9.27306 7.44 9.18506 7.324 9.11306 7.164C9.08106 7.052 9.05306 6.928 9.02906 6.792C9.01306 6.648 9.00506 6.516 9.00506 6.396C9.00506 6.268 9.01706 6.184 9.04106 6.144C9.07306 6.112 9.08506 6.056 9.07706 5.976C9.07706 5.888 9.07706 5.796 9.07706 5.7C9.06906 5.54 9.02906 5.452 8.95706 5.436C8.89306 5.412 8.79706 5.436 8.66906 5.508C8.52506 5.596 8.33706 5.716 8.10506 5.868C7.87306 6.012 7.62906 6.172 7.37306 6.348C7.12506 6.524 6.88906 6.708 6.66506 6.9C6.48906 7.092 6.38106 7.24 6.34106 7.344C6.30906 7.44 6.26106 7.488 6.19706 7.488C6.13306 7.52 6.07706 7.524 6.02906 7.5C5.98906 7.468 5.92906 7.42 5.84906 7.356C5.79306 7.292 5.73706 7.232 5.68106 7.176C5.62506 7.112 5.58906 7.064 5.57306 7.032C5.57306 6.992 5.58506 6.908 5.60906 6.78C5.63306 6.652 5.66106 6.524 5.69306 6.396C5.73306 6.268 5.76106 6.184 5.77706 6.144C5.81706 6.144 5.84906 6.104 5.87306 6.024C5.90506 5.944 5.95306 5.856 6.01706 5.76C6.03306 5.664 6.07306 5.536 6.13706 5.376C6.20906 5.208 6.27306 5.06 6.32906 4.932C6.44106 4.74 6.51706 4.58 6.55706 4.452C6.60506 4.324 6.63706 4.164 6.65306 3.972C6.64506 3.94 6.65306 3.912 6.67706 3.888C6.70106 3.856 6.72906 3.84 6.76106 3.84C6.82506 3.776 6.90106 3.76 6.98906 3.792C7.07706 3.816 7.15706 3.876 7.22906 3.972C7.37306 4.164 7.42906 4.364 7.39706 4.572C7.37306 4.772 7.24506 5.06 7.01306 5.436C6.95706 5.564 6.91306 5.664 6.88106 5.736C6.85706 5.8 6.84506 5.852 6.84506 5.892C6.84506 5.892 6.88506 5.864 6.96506 5.808C7.05306 5.752 7.14906 5.688 7.25306 5.616C7.36506 5.536 7.45306 5.476 7.51706 5.436C7.55706 5.396 7.64906 5.324 7.79306 5.22C7.93706 5.116 8.08906 5.016 8.24906 4.92C8.41706 4.816 8.54106 4.756 8.62106 4.74C8.68506 4.708 8.75306 4.68 8.82506 4.656C8.89706 4.624 8.94906 4.608 8.98106 4.608C9.04506 4.608 9.12506 4.644 9.22106 4.716C9.32506 4.78 9.42106 4.86 9.50906 4.956C9.59706 5.044 9.64906 5.12 9.66506 5.184C9.66506 5.216 9.66506 5.248 9.66506 5.28C9.67306 5.312 9.68106 5.344 9.68906 5.376C9.72106 5.48 9.73706 5.62 9.73706 5.796C9.74506 5.972 9.74106 6.132 9.72506 6.276C9.70906 6.42 9.68106 6.504 9.64106 6.528C9.64106 6.528 9.64106 6.54 9.64106 6.564C9.64906 6.58 9.66906 6.588 9.70106 6.588C9.70106 6.62 9.70106 6.64 9.70106 6.648C9.66106 6.648 9.64506 6.684 9.65306 6.756C9.66106 6.82 9.68506 6.892 9.72506 6.972C9.77306 7.052 9.82106 7.116 9.86906 7.164C9.96506 7.26 10.0051 7.352 9.98906 7.44C9.97306 7.52 9.90106 7.576 9.77306 7.608ZM11.0594 7.776C10.9954 7.712 10.9474 7.632 10.9154 7.536C10.8914 7.44 10.8834 7.344 10.8914 7.248C10.8994 7.152 10.9194 7.072 10.9514 7.008C10.9514 6.944 10.9594 6.896 10.9754 6.864C10.9994 6.824 11.0074 6.788 10.9994 6.756C10.9914 6.724 10.9994 6.668 11.0234 6.588C11.0474 6.508 11.0714 6.432 11.0954 6.36C11.1514 6.232 11.2114 6.08 11.2754 5.904C11.3394 5.72 11.3994 5.54 11.4554 5.364C11.5114 5.188 11.5594 5.036 11.5994 4.908C11.6394 4.78 11.6634 4.7 11.6714 4.668C11.6714 4.572 11.7354 4.52 11.8634 4.512C11.9594 4.48 12.0314 4.48 12.0794 4.512C12.1274 4.536 12.1914 4.612 12.2714 4.74C12.3354 4.804 12.3594 4.9 12.3434 5.028C12.3274 5.156 12.2754 5.316 12.1874 5.508C12.1554 5.572 12.1154 5.664 12.0674 5.784C12.0274 5.904 11.9994 6.012 11.9834 6.108C11.9514 6.172 11.9114 6.264 11.8634 6.384C11.8234 6.496 11.7874 6.604 11.7554 6.708C11.7394 6.748 11.7234 6.808 11.7074 6.888C11.6914 6.96 11.6714 7.04 11.6474 7.128C11.6234 7.208 11.5914 7.28 11.5514 7.344C11.4794 7.672 11.4114 7.864 11.3474 7.92C11.2914 7.976 11.1954 7.928 11.0594 7.776ZM12.2234 2.904C12.1834 2.864 12.1474 2.808 12.1154 2.736C12.0834 2.656 12.0634 2.584 12.0554 2.52C12.0474 2.448 12.0554 2.412 12.0794 2.412C12.1434 2.404 12.2194 2.336 12.3074 2.208C12.3954 2.08 12.4314 1.968 12.4154 1.872C12.4154 1.84 12.4274 1.812 12.4514 1.788C12.4754 1.756 12.5034 1.736 12.5354 1.728C12.6314 1.664 12.7234 1.656 12.8114 1.704C12.9074 1.744 12.9954 1.828 13.0754 1.956C13.1474 2.108 13.1674 2.236 13.1354 2.34C13.1034 2.436 13.0154 2.572 12.8714 2.748C12.7514 2.908 12.6394 2.996 12.5354 3.012C12.4394 3.028 12.3354 2.992 12.2234 2.904ZM14.3897 7.776C14.3097 7.832 14.2537 7.86 14.2217 7.86C14.1897 7.852 14.1297 7.804 14.0417 7.716C13.8897 7.572 13.7817 7.3 13.7177 6.9C13.6617 6.492 13.6337 5.92 13.6337 5.184C13.6657 4.856 13.6817 4.576 13.6817 4.344C13.6897 4.112 13.6937 3.98 13.6937 3.948C13.7177 3.916 13.7657 3.9 13.8377 3.9C13.9177 3.9 13.9857 3.916 14.0417 3.948C14.1217 3.988 14.1737 4.048 14.1977 4.128C14.2297 4.208 14.2497 4.352 14.2577 4.56C14.2657 4.76 14.2697 5.068 14.2697 5.484C14.2457 5.804 14.2337 6.084 14.2337 6.324C14.2337 6.556 14.2457 6.688 14.2697 6.72C14.3017 6.776 14.3377 6.792 14.3777 6.768C14.4257 6.736 14.5097 6.66 14.6297 6.54C14.6937 6.452 14.7737 6.336 14.8697 6.192C14.9657 6.04 15.0417 5.92 15.0977 5.832C15.1857 5.72 15.2657 5.612 15.3377 5.508C15.4177 5.404 15.4737 5.336 15.5057 5.304C15.5377 5.24 15.5777 5.18 15.6257 5.124C15.6737 5.068 15.7137 5.012 15.7457 4.956C15.8337 4.804 15.9257 4.68 16.0217 4.584C16.1177 4.48 16.1817 4.428 16.2137 4.428C16.2457 4.452 16.2737 4.46 16.2977 4.452C16.3297 4.436 16.3617 4.428 16.3937 4.428C16.4497 4.372 16.5257 4.372 16.6217 4.428C16.6537 4.452 16.6817 4.48 16.7057 4.512C16.7297 4.536 16.7417 4.564 16.7417 4.596C16.7417 4.636 16.7097 4.72 16.6457 4.848C16.5897 4.976 16.5217 5.1 16.4417 5.22C16.3697 5.332 16.3137 5.4 16.2737 5.424C16.2737 5.424 16.2617 5.436 16.2377 5.46C16.2137 5.484 16.1857 5.512 16.1537 5.544C16.1377 5.6 16.0857 5.7 15.9977 5.844C15.9097 5.98 15.8017 6.136 15.6737 6.312C15.5457 6.488 15.4137 6.664 15.2777 6.84C15.1417 7.016 15.0217 7.172 14.9177 7.308C14.8377 7.42 14.7457 7.52 14.6417 7.608C14.5377 7.688 14.4537 7.744 14.3897 7.776ZM18.2903 8.196C17.9383 8.196 17.6503 8.064 17.4263 7.8C17.2023 7.528 17.0943 7.192 17.1023 6.792C17.1183 6.504 17.1743 6.196 17.2703 5.868C17.3743 5.532 17.5103 5.212 17.6783 4.908C17.8463 4.596 18.0303 4.324 18.2303 4.092C18.4303 3.86 18.6383 3.696 18.8543 3.6C18.9343 3.56 19.0183 3.528 19.1063 3.504C19.2023 3.48 19.2983 3.468 19.3943 3.468C19.4823 3.468 19.5743 3.484 19.6703 3.516C19.7663 3.54 19.8463 3.568 19.9103 3.6C20.0463 3.656 20.1503 3.724 20.2223 3.804C20.2943 3.884 20.3583 4.008 20.4143 4.176C20.4383 4.328 20.4503 4.436 20.4503 4.5C20.4503 4.564 20.4303 4.66 20.3903 4.788C20.2943 5.076 20.1703 5.324 20.0183 5.532C19.8663 5.74 19.6623 5.916 19.4063 6.06C19.3423 6.1 19.2663 6.132 19.1783 6.156C19.0983 6.172 19.0143 6.18 18.9263 6.18C18.7663 6.18 18.6103 6.152 18.4583 6.096C18.3143 6.032 18.1983 5.94 18.1103 5.82L18.0263 5.724L17.9903 5.82C17.9103 6.036 17.8463 6.236 17.7983 6.42C17.7583 6.604 17.7383 6.772 17.7383 6.924C17.7383 7.02 17.7463 7.112 17.7623 7.2C17.7863 7.288 17.8183 7.364 17.8583 7.428C17.8903 7.476 17.9423 7.512 18.0143 7.536C18.0943 7.552 18.1783 7.56 18.2663 7.56C18.3223 7.56 18.3783 7.56 18.4343 7.56C18.4983 7.552 18.5583 7.536 18.6143 7.512C18.7503 7.464 18.8583 7.412 18.9383 7.356C19.0263 7.3 19.1143 7.24 19.2023 7.176L19.2503 7.152H19.2383C19.3343 7.104 19.4183 7.056 19.4903 7.008C19.5703 6.96 19.6103 6.936 19.6103 6.936C19.6423 6.936 19.6743 6.916 19.7063 6.876C19.7703 6.844 19.8503 6.856 19.9463 6.912C20.0503 6.968 20.1023 7.04 20.1023 7.128C20.0943 7.168 20.0583 7.232 19.9943 7.32C19.9303 7.4 19.8583 7.476 19.7783 7.548C19.7063 7.62 19.6463 7.66 19.5983 7.668C19.5903 7.676 19.5623 7.692 19.5143 7.716C19.4663 7.732 19.4343 7.748 19.4183 7.764H19.4303C19.3583 7.86 19.2863 7.908 19.2143 7.908H19.1183C19.0863 7.964 18.9823 8.028 18.8063 8.1C18.6303 8.164 18.4583 8.196 18.2903 8.196ZM18.8303 5.556C18.9743 5.556 19.0983 5.516 19.2023 5.436C19.3143 5.348 19.4103 5.252 19.4903 5.148C19.6503 4.932 19.7423 4.724 19.7663 4.524C19.7983 4.316 19.7743 4.172 19.6943 4.092C19.6463 4.068 19.6023 4.056 19.5623 4.056C19.5303 4.048 19.4623 4.06 19.3583 4.092C19.2863 4.108 19.1863 4.168 19.0583 4.272C18.9303 4.376 18.8023 4.492 18.6743 4.62C18.5543 4.748 18.4623 4.856 18.3983 4.944L18.2423 5.196C18.3063 5.172 18.3663 5.16 18.4223 5.16C18.4863 5.152 18.5223 5.156 18.5303 5.172C18.5303 5.244 18.5423 5.312 18.5663 5.376C18.5983 5.432 18.6343 5.476 18.6743 5.508C18.7223 5.54 18.7743 5.556 18.8303 5.556ZM21.6407 7.884C21.6007 7.964 21.5407 7.988 21.4607 7.956C21.3887 7.924 21.3287 7.892 21.2807 7.86C21.2247 7.86 21.1767 7.844 21.1367 7.812C21.0967 7.78 21.0687 7.732 21.0527 7.668C21.0367 7.62 21.0327 7.564 21.0407 7.5C21.0487 7.428 21.0647 7.348 21.0887 7.26C21.1207 7.164 21.1527 7.06 21.1847 6.948C21.2487 6.684 21.2927 6.492 21.3167 6.372C21.3407 6.252 21.3647 6.148 21.3887 6.06C21.4127 5.972 21.4447 5.844 21.4847 5.676C21.5487 5.516 21.6007 5.36 21.6407 5.208C21.6807 5.056 21.7407 4.904 21.8207 4.752C21.8767 4.544 21.9447 4.348 22.0247 4.164C22.1127 3.972 22.1967 3.812 22.2767 3.684C22.2927 3.66 22.3207 3.628 22.3607 3.588C22.4087 3.548 22.4487 3.528 22.4807 3.528C22.5447 3.464 22.6007 3.44 22.6487 3.456C22.7047 3.464 22.7727 3.5 22.8527 3.564C22.9487 3.668 22.9847 3.788 22.9607 3.924C22.9447 4.06 22.8487 4.26 22.6727 4.524C22.5767 4.772 22.4887 4.988 22.4087 5.172C22.3287 5.348 22.2727 5.516 22.2407 5.676C22.3287 5.548 22.4247 5.432 22.5287 5.328C22.6407 5.216 22.7327 5.124 22.8047 5.052C22.9807 4.876 23.1247 4.748 23.2367 4.668C23.3567 4.588 23.4967 4.496 23.6567 4.392C23.7527 4.328 23.8447 4.272 23.9327 4.224C24.0207 4.168 24.1167 4.128 24.2207 4.104C24.3327 4.08 24.4527 4.08 24.5807 4.104C24.6607 4.096 24.7247 4.12 24.7727 4.176C24.8287 4.232 24.8727 4.308 24.9047 4.404C24.9367 4.5 24.9567 4.612 24.9647 4.74C24.7807 4.7 24.6167 4.708 24.4727 4.764C24.3287 4.812 24.2047 4.872 24.1007 4.944C24.0047 5.016 23.9287 5.072 23.8727 5.112C23.7527 5.192 23.6007 5.3 23.4167 5.436C23.2327 5.564 23.0487 5.72 22.8647 5.904C22.7207 6.064 22.5967 6.2 22.4927 6.312C22.3967 6.424 22.3167 6.524 22.2527 6.612C22.1967 6.7 22.1527 6.792 22.1207 6.888C22.0407 7.072 21.9567 7.272 21.8687 7.488C21.7807 7.704 21.7047 7.836 21.6407 7.884ZM26.0969 8.208C25.9449 8.144 25.8009 8.06 25.6649 7.956C25.5289 7.844 25.4409 7.752 25.4009 7.68C25.4009 7.608 25.4129 7.56 25.4369 7.536C25.4609 7.504 25.5289 7.492 25.6409 7.5C25.7609 7.5 25.9529 7.516 26.2169 7.548C26.3129 7.548 26.4329 7.54 26.5769 7.524C26.7209 7.508 26.8529 7.484 26.9729 7.452C27.1009 7.42 27.1729 7.38 27.1889 7.332C27.2289 7.332 27.2369 7.32 27.2129 7.296C27.1889 7.264 27.1609 7.232 27.1289 7.2C27.0969 7.2 27.0609 7.188 27.0209 7.164C26.9809 7.132 26.9449 7.116 26.9129 7.116C26.9129 7.076 26.8729 7.032 26.7929 6.984C26.7209 6.928 26.6449 6.884 26.5649 6.852C26.3889 6.708 26.2369 6.58 26.1089 6.468C25.9809 6.348 25.9329 6.268 25.9649 6.228C25.9649 6.196 25.9649 6.18 25.9649 6.18C25.9649 6.172 25.9649 6.168 25.9649 6.168C25.9089 6.168 25.8449 6.088 25.7729 5.928C25.7089 5.768 25.6769 5.624 25.6769 5.496C25.6769 5.4 25.7049 5.28 25.7609 5.136C25.8169 4.984 25.8929 4.828 25.9889 4.668C26.0849 4.508 26.1849 4.376 26.2889 4.272C26.4329 4.136 26.6129 3.992 26.8289 3.84C27.0449 3.68 27.2569 3.54 27.4649 3.42C27.6809 3.292 27.8609 3.208 28.0049 3.168C28.1489 3.112 28.2809 3.084 28.4009 3.084C28.5289 3.084 28.6409 3.112 28.7369 3.168C28.8169 3.208 28.8889 3.268 28.9529 3.348C29.0249 3.42 29.0849 3.496 29.1329 3.576C29.1889 3.648 29.2249 3.712 29.2409 3.768C29.2409 3.864 29.2329 3.972 29.2169 4.092C29.2009 4.204 29.1769 4.304 29.1449 4.392C29.1209 4.48 29.0809 4.524 29.0249 4.524C29.0249 4.524 29.0129 4.528 28.9889 4.536C28.9729 4.536 28.9649 4.556 28.9649 4.596C28.9649 4.676 28.9049 4.768 28.7849 4.872C28.6329 4.976 28.5009 5.04 28.3889 5.064C28.2769 5.08 28.2089 5.036 28.1849 4.932C28.1609 4.9 28.1449 4.872 28.1369 4.848C28.1289 4.824 28.1089 4.812 28.0769 4.812C28.0769 4.812 28.0649 4.8 28.0409 4.776C28.0169 4.752 28.0049 4.712 28.0049 4.656C28.0049 4.624 28.0169 4.596 28.0409 4.572C28.0649 4.54 28.0769 4.524 28.0769 4.524C28.1169 4.524 28.1689 4.48 28.2329 4.392C28.2969 4.296 28.3529 4.196 28.4009 4.092C28.4569 3.98 28.4849 3.904 28.4849 3.864C28.4849 3.816 28.4769 3.788 28.4609 3.78C28.4529 3.772 28.4169 3.768 28.3529 3.768C28.2409 3.816 28.1049 3.88 27.9449 3.96C27.7849 4.04 27.6329 4.12 27.4889 4.2C27.3529 4.272 27.2529 4.34 27.1889 4.404C27.1569 4.46 27.1369 4.496 27.1289 4.512C27.1209 4.52 27.1009 4.524 27.0689 4.524C27.0689 4.492 27.0409 4.508 26.9849 4.572C26.9369 4.628 26.8729 4.708 26.7929 4.812C26.7209 4.916 26.6489 5.02 26.5769 5.124C26.5129 5.22 26.4649 5.292 26.4329 5.34C26.4169 5.356 26.3969 5.404 26.3729 5.484C26.3569 5.556 26.3489 5.624 26.3489 5.688C26.3169 5.784 26.3209 5.852 26.3609 5.892C26.4009 5.924 26.4889 5.996 26.6249 6.108C26.9049 6.316 27.1249 6.488 27.2849 6.624C27.4449 6.76 27.5649 6.872 27.6449 6.96C27.7249 7.048 27.7729 7.128 27.7889 7.2C27.9329 7.44 27.9769 7.624 27.9209 7.752C27.8649 7.88 27.7289 7.992 27.5129 8.088C27.4329 8.128 27.3009 8.16 27.1169 8.184C26.9329 8.208 26.7449 8.22 26.5529 8.22C26.3609 8.228 26.2089 8.224 26.0969 8.208ZM29.6827 7.572C29.6507 7.572 29.6107 7.564 29.5627 7.548C29.5227 7.524 29.5027 7.512 29.5027 7.512C29.5027 7.48 29.4907 7.44 29.4667 7.392C29.4507 7.344 29.4427 7.304 29.4427 7.272C29.3867 7.24 29.3547 7.208 29.3467 7.176C29.3387 7.136 29.3507 7.072 29.3827 6.984C29.4307 6.904 29.4947 6.776 29.5747 6.6C29.6547 6.416 29.7387 6.22 29.8267 6.012C29.9147 5.796 29.9987 5.584 30.0787 5.376C30.1587 5.168 30.2267 4.992 30.2827 4.848C30.3387 4.696 30.3707 4.604 30.3787 4.572C30.3787 4.54 30.3907 4.5 30.4147 4.452C30.4387 4.404 30.4667 4.364 30.4987 4.332C30.5627 4.276 30.6307 4.272 30.7027 4.32C30.7747 4.36 30.8347 4.432 30.8827 4.536C30.9387 4.632 30.9667 4.74 30.9667 4.86C30.9667 4.916 30.9267 5.06 30.8467 5.292C30.7667 5.516 30.6587 5.784 30.5227 6.096C30.3947 6.408 30.2507 6.724 30.0907 7.044C29.9707 7.276 29.8947 7.424 29.8627 7.488C29.8307 7.544 29.7707 7.572 29.6827 7.572ZM31.4467 3.024C31.3507 3.024 31.2467 2.988 31.1347 2.916C31.0307 2.836 30.9387 2.74 30.8587 2.628C30.7867 2.508 30.7507 2.388 30.7507 2.268C30.7507 2.228 30.7747 2.172 30.8227 2.1C30.8707 2.028 30.9187 1.956 30.9667 1.884C31.0147 1.812 31.0387 1.768 31.0387 1.752C31.1027 1.752 31.1507 1.756 31.1827 1.764C31.2227 1.764 31.2707 1.78 31.3267 1.812C31.4147 2.012 31.5227 2.176 31.6507 2.304C31.7867 2.432 31.8547 2.54 31.8547 2.628C31.8547 2.804 31.8387 2.916 31.8067 2.964C31.7747 3.004 31.6547 3.024 31.4467 3.024ZM33.193 8.136C33.081 8.104 32.989 8.068 32.917 8.028C32.845 7.98 32.749 7.904 32.629 7.8C32.533 7.672 32.457 7.552 32.401 7.44C32.353 7.328 32.321 7.2 32.305 7.056C32.289 6.904 32.281 6.712 32.281 6.48C32.281 6.384 32.297 6.24 32.329 6.048C32.369 5.856 32.413 5.656 32.461 5.448C32.517 5.232 32.565 5.04 32.605 4.872C32.653 4.704 32.681 4.596 32.689 4.548C32.713 4.444 32.673 4.384 32.569 4.368C32.465 4.352 32.349 4.348 32.221 4.356C32.101 4.356 32.021 4.344 31.981 4.32C31.949 4.312 31.933 4.3 31.933 4.284C31.933 4.26 31.933 4.248 31.933 4.248C31.933 4.216 31.929 4.196 31.921 4.188C31.921 4.172 31.909 4.144 31.885 4.104C31.869 4.072 31.877 4.028 31.909 3.972C31.949 3.908 32.013 3.868 32.101 3.852C32.173 3.836 32.269 3.824 32.389 3.816C32.517 3.8 32.645 3.772 32.773 3.732C32.901 3.684 33.005 3.612 33.085 3.516C33.157 3.34 33.241 3.144 33.337 2.928C33.433 2.712 33.525 2.52 33.613 2.352C33.709 2.176 33.773 2.068 33.805 2.028C33.941 1.956 34.041 1.928 34.105 1.944C34.169 1.952 34.241 2.02 34.321 2.148C34.361 2.204 34.389 2.248 34.405 2.28C34.429 2.312 34.433 2.36 34.417 2.424C34.401 2.488 34.357 2.588 34.285 2.724C34.221 2.86 34.121 3.056 33.985 3.312C33.945 3.392 33.909 3.464 33.877 3.528C33.845 3.584 33.829 3.612 33.829 3.612C33.861 3.62 33.909 3.624 33.973 3.624C34.037 3.624 34.117 3.62 34.213 3.612C34.301 3.596 34.413 3.584 34.549 3.576C34.685 3.56 34.793 3.56 34.873 3.576C35.057 3.576 35.193 3.612 35.281 3.684C35.369 3.748 35.417 3.86 35.425 4.02C35.441 4.108 35.421 4.16 35.365 4.176C35.317 4.192 35.185 4.2 34.969 4.2C34.897 4.2 34.785 4.204 34.633 4.212C34.481 4.22 34.321 4.228 34.153 4.236C33.993 4.244 33.853 4.256 33.733 4.272C33.621 4.28 33.565 4.292 33.565 4.308C33.541 4.324 33.501 4.4 33.445 4.536C33.397 4.672 33.345 4.828 33.289 5.004C33.241 5.172 33.197 5.324 33.157 5.46C33.101 5.732 33.057 6.004 33.025 6.276C33.001 6.548 32.997 6.784 33.013 6.984C33.029 7.184 33.073 7.324 33.145 7.404C33.217 7.476 33.357 7.492 33.565 7.452C33.773 7.404 33.941 7.328 34.069 7.224C34.213 7.104 34.329 7.044 34.417 7.044C34.513 7.044 34.565 7.088 34.573 7.176C34.589 7.256 34.545 7.372 34.441 7.524C34.345 7.668 34.225 7.796 34.081 7.908C33.937 8.012 33.785 8.088 33.625 8.136C33.473 8.176 33.329 8.176 33.193 8.136ZM36.5057 10.92C36.4977 10.936 36.4617 10.92 36.3977 10.872C36.3417 10.824 36.2857 10.764 36.2297 10.692C36.1737 10.628 36.1497 10.572 36.1577 10.524C36.1257 10.412 36.1297 10.272 36.1697 10.104C36.2177 9.944 36.3177 9.704 36.4697 9.384C36.5497 9.256 36.6217 9.104 36.6857 8.928C36.7577 8.752 36.8377 8.576 36.9257 8.4C36.9657 8.328 37.0537 8.172 37.1897 7.932C37.3257 7.692 37.4697 7.42 37.6217 7.116C37.7817 6.812 37.9137 6.524 38.0177 6.252C37.8097 6.468 37.6177 6.688 37.4417 6.912C37.2657 7.128 37.1017 7.304 36.9497 7.44C36.8057 7.576 36.6697 7.64 36.5417 7.632C36.4377 7.608 36.3257 7.572 36.2057 7.524C36.0937 7.468 36.0177 7.372 35.9777 7.236C35.9457 7.06 35.9337 6.836 35.9417 6.564C35.9577 6.292 36.0097 5.88 36.0977 5.328C36.1617 5.056 36.1977 4.848 36.2057 4.704C36.2217 4.552 36.2177 4.44 36.1937 4.368C36.1697 4.296 36.1257 4.232 36.0617 4.176C35.9577 4.08 35.9017 3.996 35.8937 3.924C35.8937 3.844 35.9497 3.776 36.0617 3.72C36.2297 3.68 36.3497 3.668 36.4217 3.684C36.4937 3.692 36.5817 3.756 36.6857 3.876C36.7497 3.98 36.8057 4.08 36.8537 4.176C36.9097 4.264 36.9377 4.42 36.9377 4.644C36.9377 4.74 36.9217 4.868 36.8897 5.028C36.8657 5.188 36.8417 5.34 36.8177 5.484C36.8017 5.62 36.7897 5.716 36.7817 5.772C36.7017 6.068 36.6497 6.324 36.6257 6.54C36.6097 6.756 36.6217 6.864 36.6617 6.864C36.8217 6.736 36.9737 6.592 37.1177 6.432C37.2697 6.264 37.4257 6.076 37.5857 5.868C37.7537 5.652 37.9377 5.408 38.1377 5.136C38.2097 5 38.2817 4.868 38.3537 4.74C38.4257 4.612 38.4857 4.48 38.5337 4.344C38.5817 4.24 38.6297 4.156 38.6777 4.092C38.7257 4.028 38.7657 3.992 38.7977 3.984C38.8377 3.968 38.8857 3.972 38.9417 3.996C39.0057 4.02 39.0617 4.048 39.1097 4.08C39.1657 4.104 39.1937 4.124 39.1937 4.14C39.2017 4.148 39.2217 4.156 39.2537 4.164C39.2857 4.172 39.3177 4.18 39.3497 4.188C39.3897 4.188 39.4097 4.2 39.4097 4.224C39.4097 4.24 39.3897 4.292 39.3497 4.38C39.3177 4.468 39.2777 4.568 39.2297 4.68C39.1897 4.784 39.1537 4.88 39.1217 4.968C39.0897 5.048 39.0777 5.096 39.0857 5.112C39.1017 5.128 39.0897 5.188 39.0497 5.292C39.0097 5.388 38.9617 5.496 38.9057 5.616C38.8577 5.736 38.8137 5.844 38.7737 5.94C38.6937 6.204 38.6017 6.468 38.4977 6.732C38.3937 6.988 38.2697 7.244 38.1257 7.5C38.0777 7.596 38.0057 7.744 37.9097 7.944C37.8217 8.144 37.7337 8.34 37.6457 8.532C37.5657 8.732 37.5017 8.884 37.4537 8.988C37.4217 9.052 37.3737 9.152 37.3097 9.288C37.2537 9.432 37.1897 9.588 37.1177 9.756C37.0537 9.924 36.9897 10.08 36.9257 10.224C36.8617 10.376 36.8137 10.492 36.7817 10.572C36.7657 10.724 36.7297 10.836 36.6737 10.908C36.6417 10.908 36.6057 10.908 36.5657 10.908C36.5257 10.916 36.5057 10.92 36.5057 10.92ZM46.4875 8.736C46.4795 8.784 46.4315 8.796 46.3435 8.772C46.2635 8.756 46.1915 8.7 46.1275 8.604C46.0635 8.452 46.0315 8.312 46.0315 8.184C46.0315 8.056 46.0355 7.864 46.0435 7.608C46.0915 7.328 46.1555 6.964 46.2355 6.516C46.3235 6.06 46.4235 5.552 46.5355 4.992C46.6555 4.424 46.7835 3.832 46.9195 3.216C47.0155 2.896 47.0915 2.604 47.1475 2.34C47.2115 2.068 47.2595 1.848 47.2915 1.68C47.3235 1.512 47.3395 1.428 47.3395 1.428C47.3395 1.404 47.3155 1.416 47.2675 1.464C47.2275 1.504 47.1875 1.552 47.1475 1.608C47.1075 1.664 47.0915 1.708 47.0995 1.74C47.0995 1.74 47.0715 1.78 47.0155 1.86C46.9595 1.94 46.8875 2.048 46.7995 2.184C46.7195 2.264 46.6235 2.424 46.5115 2.664C46.3995 2.904 46.2755 3.128 46.1395 3.336C46.0115 3.576 45.8755 3.836 45.7315 4.116C45.5875 4.388 45.4595 4.616 45.3475 4.8C45.2755 4.904 45.2035 5.024 45.1315 5.16C45.0595 5.296 45.0155 5.384 44.9995 5.424C44.9675 5.512 44.9115 5.62 44.8315 5.748C44.7515 5.868 44.6635 5.988 44.5675 6.108C44.5195 6.18 44.4715 6.256 44.4235 6.336C44.3755 6.408 44.3355 6.472 44.3035 6.528C44.2795 6.576 44.2675 6.6 44.2675 6.6C44.2675 6.624 44.2275 6.696 44.1475 6.816C44.0755 6.936 43.9835 7.068 43.8715 7.212C43.7675 7.356 43.6675 7.48 43.5715 7.584C43.2915 7.88 43.0675 8.056 42.8995 8.112C42.7315 8.16 42.5435 8.088 42.3355 7.896C42.2315 7.768 42.1555 7.624 42.1075 7.464C42.0595 7.296 42.0395 7.092 42.0475 6.852C42.0555 6.604 42.0835 6.296 42.1315 5.928C42.1875 5.648 42.2395 5.368 42.2875 5.088C42.3355 4.8 42.3795 4.532 42.4195 4.284C42.4675 4.028 42.5075 3.812 42.5395 3.636C42.5795 3.46 42.6115 3.344 42.6355 3.288C42.6515 3.128 42.6475 3.04 42.6235 3.024C42.5995 3.008 42.5515 3.056 42.4795 3.168C42.4475 3.224 42.3635 3.364 42.2275 3.588C42.0915 3.804 41.9315 4.072 41.7475 4.392C41.5715 4.712 41.3955 5.06 41.2195 5.436C40.8915 6.044 40.6195 6.548 40.4035 6.948C40.1955 7.34 40.0275 7.652 39.8995 7.884C39.7795 8.116 39.6915 8.288 39.6355 8.4C39.5795 8.512 39.5395 8.588 39.5155 8.628C39.4915 8.668 39.4715 8.696 39.4555 8.712C39.3835 8.712 39.3075 8.68 39.2275 8.616C39.1555 8.56 39.0795 8.492 38.9995 8.412C38.9755 8.356 38.9635 8.3 38.9635 8.244C38.9715 8.188 38.9995 8.108 39.0475 8.004C39.0955 7.892 39.1675 7.724 39.2635 7.5C39.3675 7.292 39.4635 7.112 39.5515 6.96C39.6395 6.8 39.7075 6.704 39.7555 6.672C39.7955 6.608 39.8315 6.544 39.8635 6.48C39.8955 6.416 39.9155 6.34 39.9235 6.252C39.9635 6.204 40.0235 6.108 40.1035 5.964C40.1915 5.812 40.2795 5.648 40.3675 5.472C40.4315 5.368 40.5115 5.232 40.6075 5.064C40.7115 4.896 40.8195 4.712 40.9315 4.512C41.0435 4.304 41.1435 4.108 41.2315 3.924C41.5995 3.292 41.9115 2.76 42.1675 2.328C42.4235 1.888 42.6155 1.608 42.7435 1.488C42.7835 1.448 42.8235 1.392 42.8635 1.32C42.9115 1.248 42.9355 1.184 42.9355 1.128C42.9355 0.960003 42.9675 0.808003 43.0315 0.672004C43.1035 0.528003 43.1755 0.464003 43.2475 0.480003C43.3275 0.480003 43.3995 0.488003 43.4635 0.504004C43.5275 0.520003 43.5955 0.572003 43.6675 0.660004C43.7315 0.756003 43.7875 0.852003 43.8355 0.948004C43.8835 1.044 43.8795 1.236 43.8235 1.524C43.8235 1.636 43.8115 1.764 43.7875 1.908C43.7635 2.044 43.7395 2.172 43.7155 2.292C43.6995 2.404 43.6875 2.492 43.6795 2.556C43.5755 2.868 43.4795 3.22 43.3915 3.612C43.3035 3.996 43.2235 4.388 43.1515 4.788C43.0795 5.18 43.0195 5.548 42.9715 5.892C42.9235 6.228 42.8915 6.508 42.8755 6.732C42.8675 6.948 42.8755 7.072 42.8995 7.104C42.9555 7.136 43.0035 7.14 43.0435 7.116C43.0835 7.092 43.1515 6.988 43.2475 6.804C43.3035 6.708 43.3795 6.592 43.4755 6.456C43.5795 6.312 43.6795 6.18 43.7755 6.06C43.8395 5.948 43.9395 5.78 44.0755 5.556C44.2115 5.332 44.3835 5.044 44.5915 4.692C44.8075 4.34 45.0635 3.912 45.3595 3.408C45.6635 2.896 46.0075 2.304 46.3915 1.632C46.5755 1.352 46.7475 1.08 46.9075 0.816003C47.0755 0.544003 47.2115 0.368003 47.3155 0.288003C47.4275 0.184003 47.5435 0.160003 47.6635 0.216003C47.7835 0.264003 47.8875 0.368003 47.9755 0.528003C48.0715 0.688003 48.1235 0.888003 48.1315 1.128C48.1395 1.24 48.1235 1.42 48.0835 1.668C48.0515 1.916 47.9995 2.2 47.9275 2.52C47.8555 2.832 47.7635 3.156 47.6515 3.492C47.6275 3.628 47.5875 3.8 47.5315 4.008C47.4835 4.208 47.4275 4.416 47.3635 4.632C47.2995 4.848 47.2355 5.052 47.1715 5.244C47.1315 5.508 47.0835 5.768 47.0275 6.024C46.9795 6.28 46.9635 6.452 46.9795 6.54C46.9075 6.668 46.8595 6.852 46.8355 7.092C46.8115 7.332 46.7995 7.58 46.7995 7.836C46.7675 8.148 46.7435 8.368 46.7275 8.496C46.7115 8.624 46.6835 8.684 46.6435 8.676C46.5395 8.644 46.4875 8.664 46.4875 8.736ZM49.2202 7.98C49.1162 7.98 49.0322 7.96 48.9682 7.92C48.9122 7.88 48.8402 7.824 48.7522 7.752C48.6002 7.592 48.4922 7.44 48.4282 7.296C48.3642 7.144 48.3442 7 48.3682 6.864C48.3922 6.8 48.4002 6.74 48.3922 6.684C48.3922 6.62 48.3922 6.588 48.3922 6.588C48.3522 6.548 48.3402 6.524 48.3562 6.516C48.3722 6.5 48.3882 6.476 48.4042 6.444C48.4522 6.444 48.4682 6.4 48.4522 6.312C48.4362 6.248 48.4682 6.108 48.5482 5.892C48.6282 5.676 48.7282 5.472 48.8482 5.28C48.8962 5.2 48.9682 5.096 49.0642 4.968C49.1602 4.832 49.2642 4.7 49.3762 4.572C49.4962 4.436 49.6042 4.328 49.7002 4.248C49.9002 4.08 50.0762 3.956 50.2282 3.876C50.3802 3.796 50.5442 3.736 50.7202 3.696C50.8962 3.656 51.0162 3.636 51.0802 3.636C51.1522 3.636 51.2482 3.7 51.3682 3.828C51.5522 3.908 51.6842 4.004 51.7642 4.116C51.8522 4.228 51.9082 4.392 51.9322 4.608C51.9562 4.848 51.9362 5.124 51.8722 5.436C51.8162 5.74 51.6282 6.12 51.3082 6.576C51.1082 6.864 50.9242 7.08 50.7562 7.224C50.5882 7.36 50.3882 7.496 50.1562 7.632C49.9882 7.744 49.8362 7.828 49.7002 7.884C49.5642 7.932 49.4042 7.964 49.2202 7.98ZM50.3722 6.708C50.5642 6.492 50.7162 6.288 50.8282 6.096C50.9482 5.904 51.0602 5.66 51.1642 5.364C51.1962 5.276 51.2162 5.168 51.2242 5.04C51.2322 4.904 51.2282 4.78 51.2122 4.668C51.2042 4.548 51.1762 4.48 51.1282 4.464C51.0322 4.408 50.9162 4.392 50.7802 4.416C50.6442 4.432 50.4962 4.508 50.3362 4.644C50.0882 4.852 49.8722 5.112 49.6882 5.424C49.5042 5.728 49.3242 6.076 49.1482 6.468C49.0282 6.756 49.0002 6.988 49.0642 7.164C49.1362 7.332 49.2842 7.392 49.5082 7.344C49.7402 7.288 50.0282 7.076 50.3722 6.708ZM53.6773 7.428C53.6213 7.38 53.5493 7.236 53.4613 6.996C53.3813 6.756 53.3013 6.476 53.2213 6.156C53.1493 5.828 53.0893 5.528 53.0413 5.256C53.0093 5.096 52.9733 4.96 52.9333 4.848C52.9013 4.736 52.8733 4.644 52.8493 4.572C52.8093 4.428 52.7973 4.308 52.8133 4.212C52.8293 4.116 52.8853 4.04 52.9813 3.984C53.0213 3.96 53.0693 3.944 53.1253 3.936C53.1893 3.92 53.2373 3.916 53.2693 3.924C53.3653 3.956 53.4533 4.104 53.5333 4.368C53.6133 4.624 53.6853 4.964 53.7493 5.388C53.7813 5.636 53.8213 5.848 53.8693 6.024C53.9173 6.2 53.9413 6.304 53.9413 6.336C53.9733 6.4 54.0093 6.464 54.0493 6.528C54.0973 6.584 54.1533 6.58 54.2173 6.516C54.2493 6.484 54.3133 6.412 54.4093 6.3C54.5133 6.188 54.6133 6.068 54.7093 5.94C54.8773 5.716 55.0093 5.532 55.1053 5.388C55.2093 5.244 55.3253 5.092 55.4533 4.932C55.5093 4.852 55.5733 4.764 55.6453 4.668C55.7173 4.572 55.7893 4.484 55.8613 4.404C55.9413 4.316 56.0133 4.264 56.0773 4.248C56.2693 4.216 56.3733 4.256 56.3893 4.368C56.4053 4.48 56.3333 4.648 56.1733 4.872C56.1093 4.968 56.0573 5.06 56.0173 5.148C55.9853 5.228 55.9533 5.284 55.9213 5.316C55.8573 5.444 55.7573 5.608 55.6213 5.808C55.4853 6 55.3533 6.18 55.2253 6.348C55.0973 6.508 55.0093 6.612 54.9613 6.66C54.9293 6.692 54.8573 6.752 54.7453 6.84C54.6413 6.928 54.5413 7.04 54.4453 7.176C54.2533 7.36 54.1013 7.472 53.9893 7.512C53.8773 7.552 53.7733 7.524 53.6773 7.428ZM57.254 7.788C57.134 7.772 57.03 7.688 56.942 7.536C56.862 7.376 56.814 7.232 56.798 7.104C56.806 7.04 56.814 6.948 56.822 6.828C56.838 6.708 56.854 6.584 56.87 6.456C56.902 6.304 56.946 6.12 57.002 5.904C57.058 5.68 57.114 5.456 57.17 5.232C57.234 5.008 57.29 4.816 57.338 4.656C57.386 4.496 57.418 4.4 57.434 4.368C57.474 4.304 57.538 4.288 57.626 4.32C57.714 4.352 57.786 4.4 57.842 4.464C57.89 4.528 57.918 4.604 57.926 4.692C57.942 4.78 57.93 4.908 57.89 5.076C57.858 5.244 57.794 5.492 57.698 5.82C57.61 6.14 57.542 6.4 57.494 6.6C57.454 6.792 57.438 6.996 57.446 7.212C57.414 7.484 57.39 7.652 57.374 7.716C57.358 7.772 57.318 7.796 57.254 7.788ZM58.634 3C58.602 3.024 58.57 3.036 58.538 3.036C58.514 3.028 58.47 3.004 58.406 2.964C58.35 2.956 58.278 2.92 58.19 2.856C58.11 2.784 58.038 2.712 57.974 2.64C57.918 2.56 57.89 2.512 57.89 2.496C57.882 2.416 57.886 2.316 57.902 2.196C57.926 2.068 57.97 1.956 58.034 1.86C58.098 1.756 58.19 1.7 58.31 1.692C58.342 1.692 58.37 1.696 58.394 1.704C58.418 1.712 58.49 1.74 58.61 1.788C58.674 1.908 58.738 2.044 58.802 2.196C58.866 2.34 58.894 2.484 58.886 2.628C58.878 2.764 58.794 2.888 58.634 3ZM59.7322 7.872C59.4202 7.744 59.2162 7.568 59.1202 7.344C59.0322 7.112 59.0162 6.756 59.0722 6.276C59.0882 6.028 59.0962 5.864 59.0962 5.784C59.0962 5.704 59.0522 5.624 58.9642 5.544C58.9402 5.512 58.8962 5.468 58.8322 5.412C58.7762 5.356 58.7522 5.308 58.7602 5.268C58.7522 5.212 58.7562 5.152 58.7722 5.088C58.7882 5.016 58.8122 4.98 58.8442 4.98C58.8762 4.98 58.9082 4.972 58.9402 4.956C58.9802 4.94 59.0162 4.94 59.0482 4.956C59.0802 4.956 59.1162 4.96 59.1562 4.968C59.1962 4.976 59.2162 4.996 59.2162 5.028C59.2482 5.084 59.3002 5.092 59.3722 5.052C59.4442 5.004 59.5202 4.9 59.6002 4.74C59.6802 4.612 59.7842 4.484 59.9122 4.356C60.0482 4.228 60.1802 4.112 60.3082 4.008C60.4442 3.896 60.5562 3.816 60.6442 3.768C60.6842 3.752 60.7442 3.732 60.8242 3.708C60.9042 3.684 60.9882 3.664 61.0762 3.648C61.1722 3.632 61.2522 3.628 61.3162 3.636C61.4602 3.644 61.5802 3.684 61.6762 3.756C61.7802 3.828 61.8762 3.912 61.9642 4.008C62.0682 4.08 62.1322 4.176 62.1562 4.296C62.1882 4.416 62.1962 4.544 62.1802 4.68C62.1642 4.816 62.1282 4.94 62.0722 5.052C62.0482 5.132 61.9802 5.228 61.8682 5.34C61.7562 5.452 61.6282 5.56 61.4842 5.664C61.3402 5.768 61.2082 5.844 61.0882 5.892C60.9842 5.916 60.8482 5.936 60.6802 5.952C60.5202 5.968 60.3682 5.976 60.2242 5.976C60.0882 5.968 59.9962 5.952 59.9482 5.928C59.8922 5.896 59.8482 5.94 59.8162 6.06C59.7842 6.18 59.7602 6.352 59.7442 6.576C59.7282 6.752 59.7282 6.88 59.7442 6.96C59.7602 7.04 59.7762 7.096 59.7922 7.128C59.8482 7.184 59.9242 7.256 60.0202 7.344C60.1242 7.424 60.2682 7.436 60.4522 7.38C60.6042 7.34 60.7522 7.236 60.8962 7.068C61.0482 6.9 61.1882 6.764 61.3162 6.66C61.3482 6.604 61.4002 6.572 61.4722 6.564C61.5522 6.548 61.6362 6.552 61.7242 6.576C61.8122 6.632 61.8482 6.7 61.8322 6.78C61.8242 6.852 61.7842 6.964 61.7122 7.116C61.6882 7.172 61.6322 7.244 61.5442 7.332C61.4642 7.412 61.3722 7.496 61.2682 7.584C61.1722 7.664 61.0842 7.728 61.0042 7.776C60.7642 7.904 60.5402 7.972 60.3322 7.98C60.1242 7.98 59.9242 7.944 59.7322 7.872ZM60.4402 5.436C60.6162 5.396 60.7562 5.368 60.8602 5.352C60.9642 5.336 61.0642 5.292 61.1602 5.22C61.2562 5.14 61.3762 4.992 61.5202 4.776C61.5522 4.688 61.5602 4.6 61.5442 4.512C61.5362 4.424 61.5162 4.364 61.4842 4.332C61.4122 4.252 61.3242 4.228 61.2202 4.26C61.1242 4.284 61.0322 4.328 60.9442 4.392C60.8882 4.416 60.8042 4.476 60.6922 4.572C60.5882 4.66 60.4842 4.764 60.3802 4.884C60.2762 4.996 60.1922 5.1 60.1282 5.196C60.0642 5.292 60.0482 5.348 60.0802 5.364C60.0642 5.396 60.1082 5.416 60.2122 5.424C60.3242 5.432 60.4002 5.436 60.4402 5.436ZM62.4226 8.556C62.2786 8.476 62.1986 8.388 62.1826 8.292C62.1746 8.196 62.2306 8.028 62.3506 7.788C62.4706 7.548 62.6586 7.176 62.9146 6.672C63.1066 6.312 63.2506 6.032 63.3466 5.832C63.4506 5.624 63.5186 5.476 63.5506 5.388C63.5906 5.3 63.6106 5.244 63.6106 5.22C63.5946 5.148 63.6026 5.092 63.6346 5.052C63.6666 5.004 63.7186 4.964 63.7906 4.932C63.8306 4.892 63.8946 4.82 63.9826 4.716C64.0786 4.612 64.1666 4.488 64.2466 4.344C64.3186 4.176 64.4026 4.004 64.4986 3.828C64.5946 3.652 64.7226 3.432 64.8826 3.168C65.0426 2.896 65.2506 2.544 65.5066 2.112C65.6666 1.832 65.8426 1.548 66.0346 1.26C66.2266 0.964003 66.4306 0.672003 66.6466 0.384004C66.7346 0.272003 66.8146 0.184003 66.8866 0.120003C66.9586 0.0480034 67.0306 0.0160034 67.1026 0.0240033C67.1986 0.0240033 67.3066 0.0560033 67.4266 0.120003C67.5546 0.184003 67.6706 0.268003 67.7746 0.372003C67.8786 0.476003 67.9546 0.588003 68.0026 0.708003C68.0426 0.772003 68.0586 0.908003 68.0506 1.116C68.0426 1.324 68.0266 1.576 68.0026 1.872C67.9786 2.168 67.9506 2.484 67.9186 2.82C67.8946 3.148 67.8586 3.536 67.8106 3.984C67.7626 4.432 67.7146 4.9 67.6666 5.388C67.6266 5.876 67.5946 6.348 67.5706 6.804C67.5466 7.252 67.5466 7.644 67.5706 7.98C67.5786 8.052 67.5786 8.12 67.5706 8.184C67.5626 8.248 67.5586 8.3 67.5586 8.34C67.5106 8.388 67.4306 8.408 67.3186 8.4C67.2146 8.4 67.1106 8.376 67.0066 8.328C66.9106 8.28 66.8546 8.22 66.8386 8.148C66.8146 8.124 66.7986 8.092 66.7906 8.052C66.7906 8.004 66.7946 7.908 66.8026 7.764C66.8106 7.62 66.8186 7.392 66.8266 7.08L66.8866 5.136L66.7306 5.148C66.6586 5.148 66.5226 5.156 66.3226 5.172C66.1226 5.188 65.9066 5.212 65.6746 5.244C65.4426 5.268 65.2266 5.296 65.0266 5.328C64.8346 5.352 64.7026 5.376 64.6306 5.4C64.5586 5.4 64.4706 5.448 64.3666 5.544C64.2706 5.64 64.1786 5.764 64.0906 5.916C64.0586 6.028 63.9986 6.148 63.9106 6.276C63.8306 6.396 63.7906 6.476 63.7906 6.516C63.7346 6.556 63.6866 6.604 63.6466 6.66C63.6146 6.716 63.5986 6.744 63.5986 6.744C63.5986 6.792 63.5586 6.912 63.4786 7.104C63.4066 7.288 63.3146 7.496 63.2026 7.728C63.0906 7.952 62.9786 8.148 62.8666 8.316L62.6146 8.7L62.4226 8.556ZM64.9066 4.692C64.9066 4.692 64.9466 4.684 65.0266 4.668C65.1146 4.652 65.2146 4.636 65.3266 4.62C65.4466 4.596 65.5546 4.584 65.6506 4.584C65.9866 4.504 66.2306 4.452 66.3826 4.428C66.5346 4.396 66.6386 4.38 66.6946 4.38C66.7586 4.38 66.8146 4.392 66.8626 4.416C66.8946 4.456 66.9226 4.48 66.9466 4.488C66.9786 4.496 66.9946 4.5 66.9946 4.5C67.0026 4.484 67.0146 4.392 67.0306 4.224C67.0466 4.056 67.0666 3.848 67.0906 3.6C67.1226 3.352 67.1506 3.096 67.1746 2.832C67.2066 2.56 67.2306 2.312 67.2466 2.088C67.2626 1.856 67.2746 1.68 67.2826 1.56C67.2906 1.408 67.2986 1.272 67.3066 1.152C67.3146 1.024 67.3186 0.960003 67.3186 0.960003C67.2706 0.960003 67.1666 1.048 67.0066 1.224C66.8546 1.4 66.6826 1.632 66.4906 1.92C66.2986 2.208 66.1186 2.516 65.9506 2.844C65.8706 2.996 65.7946 3.132 65.7226 3.252C65.6506 3.372 65.5946 3.432 65.5546 3.432C65.5386 3.448 65.4906 3.52 65.4106 3.648C65.3386 3.768 65.2586 3.908 65.1706 4.068C65.0826 4.22 65.0106 4.36 64.9546 4.488C64.8986 4.608 64.8826 4.676 64.9066 4.692ZM68.866 10.26C68.77 10.324 68.67 10.32 68.566 10.248C68.47 10.176 68.398 10.068 68.35 9.924C68.302 9.78 68.306 9.628 68.362 9.468C68.378 9.42 68.402 9.34 68.434 9.228C68.466 9.124 68.486 9.032 68.494 8.952C68.502 8.896 68.526 8.8 68.566 8.664C68.606 8.536 68.65 8.408 68.698 8.28C68.754 8.152 68.798 8.06 68.83 8.004C68.878 7.924 68.91 7.832 68.926 7.728C68.95 7.624 68.962 7.544 68.962 7.488C68.978 7.432 68.998 7.368 69.022 7.296C69.054 7.224 69.086 7.168 69.118 7.128C69.134 7.064 69.158 6.996 69.19 6.924C69.222 6.844 69.258 6.776 69.298 6.72C69.314 6.664 69.326 6.596 69.334 6.516C69.35 6.436 69.374 6.392 69.406 6.384C69.414 6.352 69.418 6.32 69.418 6.288C69.426 6.256 69.442 6.212 69.466 6.156C69.482 6.068 69.518 5.94 69.574 5.772C69.63 5.604 69.698 5.42 69.778 5.22C69.866 4.988 69.906 4.768 69.898 4.56C69.898 4.344 69.838 4.212 69.718 4.164C69.654 4.132 69.614 4.088 69.598 4.032C69.582 3.968 69.59 3.904 69.622 3.84C69.654 3.776 69.702 3.732 69.766 3.708C69.838 3.676 69.914 3.664 69.994 3.672C70.082 3.68 70.158 3.696 70.222 3.72C70.286 3.736 70.314 3.752 70.306 3.768C70.306 3.808 70.326 3.832 70.366 3.84C70.382 3.816 70.414 3.844 70.462 3.924C70.518 3.996 70.57 4.08 70.618 4.176C70.666 4.272 70.69 4.34 70.69 4.38C70.674 4.412 70.666 4.432 70.666 4.44C70.666 4.44 70.682 4.44 70.714 4.44C70.714 4.44 70.758 4.42 70.846 4.38C70.934 4.332 71.026 4.28 71.122 4.224C71.226 4.16 71.294 4.112 71.326 4.08C71.326 4.08 71.346 4.072 71.386 4.056C71.434 4.032 71.474 4.004 71.506 3.972C71.666 3.908 71.838 3.896 72.022 3.936C72.214 3.976 72.366 4.048 72.478 4.152C72.638 4.352 72.718 4.544 72.718 4.728C72.726 4.912 72.674 5.144 72.562 5.424C72.546 5.464 72.51 5.532 72.454 5.628C72.406 5.716 72.358 5.8 72.31 5.88C72.262 5.952 72.238 5.988 72.238 5.988C72.054 6.276 71.838 6.516 71.59 6.708C71.342 6.9 71.09 7.068 70.834 7.212C70.754 7.268 70.67 7.312 70.582 7.344C70.502 7.368 70.43 7.384 70.366 7.392C70.302 7.392 70.258 7.384 70.234 7.368C70.146 7.304 70.066 7.168 69.994 6.96C69.954 7.064 69.914 7.168 69.874 7.272C69.842 7.368 69.822 7.432 69.814 7.464C69.806 7.52 69.798 7.568 69.79 7.608C69.782 7.64 69.762 7.668 69.73 7.692C69.73 7.692 69.726 7.708 69.718 7.74C69.71 7.772 69.682 7.82 69.634 7.884C69.554 8.116 69.482 8.316 69.418 8.484C69.354 8.66 69.302 8.808 69.262 8.928C69.222 9.056 69.19 9.168 69.166 9.264C69.15 9.48 69.106 9.692 69.034 9.9C68.962 10.116 68.906 10.236 68.866 10.26ZM70.294 6.84C70.326 6.824 70.394 6.78 70.498 6.708C70.61 6.628 70.734 6.536 70.87 6.432C71.006 6.32 71.13 6.216 71.242 6.12C71.362 6.024 71.442 5.952 71.482 5.904C71.546 5.832 71.606 5.756 71.662 5.676C71.718 5.588 71.762 5.492 71.794 5.388C71.818 5.324 71.846 5.252 71.878 5.172C71.91 5.092 71.938 5.016 71.962 4.944C71.994 4.88 72.006 4.816 71.998 4.752C71.998 4.68 71.974 4.62 71.926 4.572C71.894 4.564 71.798 4.588 71.638 4.644C71.478 4.692 71.302 4.776 71.11 4.896C70.918 5.008 70.75 5.156 70.606 5.34C70.438 5.556 70.314 5.78 70.234 6.012C70.162 6.244 70.13 6.44 70.138 6.6C70.154 6.76 70.206 6.84 70.294 6.84ZM72.8252 10.836C72.7692 10.812 72.7092 10.772 72.6452 10.716C72.5812 10.66 72.5292 10.596 72.4892 10.524C72.4492 10.46 72.4292 10.404 72.4292 10.356C72.4292 10.308 72.4492 10.18 72.4892 9.972C72.5292 9.772 72.5812 9.524 72.6452 9.228C72.7172 8.94 72.7932 8.644 72.8732 8.34C72.9612 8.044 73.0492 7.78 73.1372 7.548C73.1532 7.508 73.2052 7.376 73.2932 7.152C73.3892 6.92 73.4812 6.64 73.5692 6.312C73.6332 6.104 73.7172 5.868 73.8212 5.604C73.9252 5.34 74.0332 5.076 74.1452 4.812C74.2572 4.54 74.3492 4.3 74.4212 4.092C74.4932 3.884 74.5532 3.716 74.6012 3.588C74.6572 3.452 74.6892 3.368 74.6972 3.336C74.7132 3.288 74.7372 3.248 74.7692 3.216C74.8092 3.176 74.8492 3.144 74.8892 3.12C74.9292 3.088 74.9612 3.068 74.9852 3.06C75.1292 3.02 75.2532 3.08 75.3572 3.24C75.3972 3.312 75.4052 3.396 75.3812 3.492C75.3572 3.588 75.3132 3.708 75.2492 3.852L75.1652 4.092L75.5972 3.996C75.6692 3.996 75.7572 4 75.8612 4.008C75.9732 4.008 76.0812 4.008 76.1852 4.008C76.2892 4.008 76.3652 4.016 76.4132 4.032C76.6052 4.04 76.7372 4.076 76.8092 4.14C76.8892 4.204 76.9572 4.288 77.0132 4.392C77.0532 4.432 77.1012 4.488 77.1572 4.56C77.2132 4.624 77.2452 4.688 77.2532 4.752C77.2852 4.888 77.2852 5.036 77.2532 5.196C77.2292 5.348 77.1812 5.5 77.1092 5.652C77.0452 5.804 76.9572 5.944 76.8452 6.072C76.7412 6.192 76.6292 6.292 76.5092 6.372C76.4292 6.404 76.3572 6.44 76.2932 6.48C76.2292 6.512 76.1972 6.528 76.1972 6.528C76.1892 6.568 76.1012 6.632 75.9332 6.72C75.7652 6.8 75.5732 6.876 75.3572 6.948C75.1412 7.02 74.9532 7.068 74.7932 7.092C74.7372 7.1 74.6572 7.108 74.5532 7.116C74.4492 7.124 74.3692 7.112 74.3132 7.08C74.2252 7.064 74.1652 7.056 74.1332 7.056C74.1012 7.056 74.0852 7.072 74.0852 7.104C74.0772 7.12 74.0212 7.288 73.9172 7.608C73.8132 7.928 73.7052 8.3 73.5932 8.724C73.4412 9.188 73.3172 9.556 73.2212 9.828C73.1252 10.108 73.0492 10.316 72.9932 10.452C72.9452 10.588 72.9092 10.68 72.8852 10.728C72.8612 10.784 72.8412 10.82 72.8252 10.836ZM74.3252 6.408C74.3492 6.456 74.4252 6.472 74.5532 6.456C74.6892 6.432 74.8492 6.384 75.0332 6.312C75.2252 6.232 75.4132 6.144 75.5972 6.048C75.7812 5.944 75.9332 5.84 76.0532 5.736C76.2292 5.536 76.3732 5.352 76.4852 5.184C76.5972 5.008 76.6132 4.892 76.5332 4.836C76.4452 4.708 76.2812 4.648 76.0412 4.656C75.8012 4.664 75.5052 4.764 75.1532 4.956C75.0172 5.004 74.9132 5.068 74.8412 5.148C74.7772 5.22 74.7212 5.312 74.6732 5.424C74.6252 5.536 74.5652 5.672 74.4932 5.832C74.4212 6.008 74.3732 6.14 74.3492 6.228C74.3252 6.316 74.3172 6.376 74.3252 6.408Z" fill="url(#paint0_linear_1_2)"/>
<defs>
<linearGradient id="paint0_linear_1_2" x1="-1.464" y1="4.66" x2="77.536" y2="4.66" gradientUnits="userSpaceOnUse">
<stop stop-color="#03045E"/>
<stop offset="1" stop-color="#00B4D8"/>
</linearGradient>
</defs>
</svg>
